<svg width="512" height="512" viewBox="0 0 512 512" fill="none" xmlns="http://www.w3.org/2000/svg">
  <rect width="512" height="512" rx="112" fill="#050609"/>
  <circle cx="256" cy="256" r="224" fill="url(#halo)"/>
  <circle cx="256" cy="256" r="174" fill="#101319" stroke="url(#ring)" stroke-width="10"/>
  <path d="M256 118V390" stroke="#F8E7BF" stroke-width="24" stroke-linecap="round"/>
  <path d="M222 130H290" stroke="#F8E7BF" stroke-width="22" stroke-linecap="round"/>
  <path d="M256 390H205" stroke="#F8E7BF" stroke-width="22" stroke-linecap="round"/>
  <path d="M184 184C238 140 335 152 339 215C343 278 185 240 185 310C185 365 277 376 331 329" stroke="#70D990" stroke-width="28" stroke-linecap="round" stroke-linejoin="round"/>
  <path d="M184 184C238 140 335 152 339 215C343 278 185 240 185 310C185 365 277 376 331 329" stroke="#0D1117" stroke-width="10" stroke-linecap="round" stroke-linejoin="round" opacity="0.35"/>
  <circle cx="331" cy="329" r="18" fill="#70D990"/>
  <circle cx="337" cy="323" r="3.5" fill="#06100B"/>
  <path d="M331 347L350 364" stroke="#70D990" stroke-width="10" stroke-linecap="round"/>
  <path d="M331 347L314 365" stroke="#70D990" stroke-width="10" stroke-linecap="round"/>
  <circle cx="256" cy="252" r="34" fill="#D4A853" stroke="#F8E7BF" stroke-width="8"/>
  <path d="M159 414H353" stroke="#F8E7BF" stroke-width="24" stroke-linecap="round"/>
  <defs>
    <radialGradient id="halo" cx="0" cy="0" r="1" gradientUnits="userSpaceOnUse" gradientTransform="translate(258 220) rotate(90) scale(260)">
      <stop stop-color="#70D990" stop-opacity="0.32"/>
      <stop offset="0.48" stop-color="#D4A853" stop-opacity="0.2"/>
      <stop offset="1" stop-color="#050609" stop-opacity="0"/>
    </radialGradient>
    <linearGradient id="ring" x1="106" y1="102" x2="404" y2="408" gradientUnits="userSpaceOnUse">
      <stop stop-color="#F8E7BF"/>
      <stop offset="0.46" stop-color="#70D990"/>
      <stop offset="1" stop-color="#E8728A"/>
    </linearGradient>
  </defs>
</svg>
