<svg width="512" height="512" viewBox="0 0 512 512" fill="none" xmlns="http://www.w3.org/2000/svg">
  <rect width="512" height="512" rx="112" fill="#020204"/>
  <circle cx="256" cy="260" r="214" fill="url(#halo)" opacity="0.76"/>
  <path d="M256 76C183 145 125 241 86 382H426C387 241 329 145 256 76Z" fill="url(#a)" opacity="0.24"/>
  <path d="M128 374C162 254 205 168 256 106C307 168 350 254 384 374" stroke="url(#b)" stroke-width="34" stroke-linecap="round" stroke-linejoin="round"/>
  <path d="M158 376H354" stroke="#F8E7BF" stroke-width="30" stroke-linecap="round"/>
  <path d="M198 292H314" stroke="#E8728A" stroke-width="24" stroke-linecap="round"/>
  <path d="M224 232H288" stroke="#7CB6FF" stroke-width="22" stroke-linecap="round"/>
  <circle cx="256" cy="165" r="31" fill="#D4A853"/>
  <circle cx="256" cy="165" r="54" stroke="#F5D58B" stroke-width="4" opacity="0.26"/>
  <defs>
    <radialGradient id="halo" cx="0" cy="0" r="1" gradientUnits="userSpaceOnUse" gradientTransform="translate(256 238) rotate(90) scale(246 228)">
      <stop stop-color="#D4A853" stop-opacity="0.38"/>
      <stop offset="0.5" stop-color="#E8728A" stop-opacity="0.16"/>
      <stop offset="1" stop-color="#020204" stop-opacity="0"/>
    </radialGradient>
    <radialGradient id="a" cx="0" cy="0" r="1" gradientUnits="userSpaceOnUse" gradientTransform="translate(256 226) rotate(90) scale(214 190)">
      <stop stop-color="#D4A853"/>
      <stop offset="0.58" stop-color="#E8728A"/>
      <stop offset="1" stop-color="#B680D9"/>
    </radialGradient>
    <linearGradient id="b" x1="128" y1="106" x2="384" y2="374" gradientUnits="userSpaceOnUse">
      <stop stop-color="#F9DEA1"/>
      <stop offset="0.52" stop-color="#D4A853"/>
      <stop offset="1" stop-color="#E8728A"/>
    </linearGradient>
  </defs>
</svg>
