<svg width="512" height="512" viewBox="0 0 512 512" fill="none" xmlns="http://www.w3.org/2000/svg">
  <rect width="512" height="512" rx="128" fill="#050609"/>
  <circle cx="256" cy="256" r="232" fill="url(#halo)"/>
  <circle cx="256" cy="256" r="154" fill="#101319" stroke="url(#ring)" stroke-width="10"/>
  <path d="M256 132V372" stroke="#F8E7BF" stroke-width="22" stroke-linecap="round"/>
  <path d="M226 142H286" stroke="#F8E7BF" stroke-width="20" stroke-linecap="round"/>
  <path d="M256 372H212" stroke="#F8E7BF" stroke-width="20" stroke-linecap="round"/>
  <path d="M192 194C239 154 322 164 326 218C330 273 192 242 192 304C192 352 272 362 320 322" stroke="#70D990" stroke-width="26" stroke-linecap="round" stroke-linejoin="round"/>
  <path d="M192 194C239 154 322 164 326 218C330 273 192 242 192 304C192 352 272 362 320 322" stroke="#0D1117" stroke-width="9" stroke-linecap="round" stroke-linejoin="round" opacity="0.35"/>
  <circle cx="320" cy="322" r="17" fill="#70D990"/>
  <circle cx="326" cy="316" r="3.2" fill="#06100B"/>
  <path d="M320 338L336 354" stroke="#70D990" stroke-width="9" stroke-linecap="round"/>
  <path d="M320 338L305 355" stroke="#70D990" stroke-width="9" stroke-linecap="round"/>
  <circle cx="256" cy="252" r="30" fill="#D4A853" stroke="#F8E7BF" stroke-width="7"/>
  <path d="M174 398H338" stroke="#F8E7BF" stroke-width="22" stroke-linecap="round"/>
  <defs>
    <radialGradient id="halo" cx="0" cy="0" r="1" gradientUnits="userSpaceOnUse" gradientTransform="translate(258 220) rotate(90) scale(270)">
      <stop stop-color="#70D990" stop-opacity="0.32"/>
      <stop offset="0.48" stop-color="#D4A853" stop-opacity="0.2"/>
      <stop offset="1" stop-color="#050609" stop-opacity="0"/>
    </radialGradient>
    <linearGradient id="ring" x1="126" y1="112" x2="386" y2="392" gradientUnits="userSpaceOnUse">
      <stop stop-color="#F8E7BF"/>
      <stop offset="0.46" stop-color="#70D990"/>
      <stop offset="1" stop-color="#E8728A"/>
    </linearGradient>
  </defs>
</svg>
